<svg xmlns="http://www.w3.org/2000/svg" width="474" height="200" viewBox="0 0 474 200"><style>
  :root { --ink: #111111; }
  @media (prefers-color-scheme: dark) { :root { --ink: #ececec; } }
  text { font-family: -apple-system, Helvetica, Arial, sans-serif; fill: var(--ink); }
  line, polyline { stroke: var(--ink); fill: none; }
  .g { stroke-dasharray: 1 4; }
</style><text x="44" y="11" font-size="10">Lines of real code</text><line x1="44" y1="26" x2="464" y2="26" class="g"/><text x="40" y="29" font-size="9" text-anchor="end">3130</text><line x1="44" y1="96" x2="464" y2="96" class="g"/><text x="40" y="99" font-size="9" text-anchor="end">1565</text>
<line x1="44" y1="26" x2="44" y2="166"/><line x1="44" y1="166" x2="464" y2="166"/>
<polyline points="44,164 54,158 65,153 75,152 86,139 96,134 107,133 117,121 128,115 138,110 149,107 159,102 170,99 180,96 191,94 201,92 212,92 222,92 233,92 243,86 254,82 264,82 275,76 285,71 296,71 306,71 317,70 327,64 338,59 348,56 359,55 369,54 380,52 390,52 401,51 411,51 422,37 432,36 443,35 453,34 464,26" stroke-width="2.5" stroke-linejoin="round" stroke-linecap="round"/>
<text x="44" y="182" font-size="10">Aug 30</text><text x="464" y="182" font-size="10" text-anchor="end">Sep 20</text>
<text x="44" y="196" font-size="10" font-weight="600">3,130 lines &#183; 58 commits since Aug 30 2026</text></svg>
